<?xml version="1.0" encoding="utf-8"?>
<!-- Generator: Adobe Illustrator 19.0.0, SVG Export Plug-In . SVG Version: 6.00 Build 0)  -->
<svg version="1.1" id="Camada_1" xmlns="http://www.w3.org/2000/svg" xmlns:xlink="http://www.w3.org/1999/xlink" x="0px" y="0px"
	 viewBox="0 0 400 200" style="enable-background:new 0 0 400 200;" xml:space="preserve">
<style type="text/css">
	.st0{fill:#006DFF;}
	.st1{fill:url(#XMLID_24_);}
	.st2{fill:url(#XMLID_25_);}
</style>
<g id="XMLID_3_">
	<path id="XMLID_6_" class="st0" d="M157.1,143.3c-1.8,0-3.4-0.3-4.9-1s-2.8-1.6-3.9-2.7c-1.1-1.1-2-2.5-2.6-4.1
		c-0.6-1.6-0.9-3.3-0.9-5.1c0-1.8,0.3-3.5,0.9-5.1c0.6-1.5,1.5-2.8,2.6-3.9c1.1-1.1,2.4-1.9,3.9-2.5s3.1-0.9,4.9-0.9h6.1
		c1.8,0,3.5,0.3,5,0.9s2.8,1.4,3.9,2.5c1.1,1.1,1.9,2.4,2.5,3.9c0.6,1.5,0.9,3.2,0.9,5c0,1.8-0.3,3.5-0.9,5.1
		c-0.6,1.6-1.5,2.9-2.6,4.1c-1.1,1.1-2.4,2-3.9,2.7c-1.5,0.7-3.2,1-5,1H157.1z M163.3,138.9c1.2,0,2.2-0.2,3.2-0.6
		c1-0.4,1.8-1,2.5-1.7c0.7-0.7,1.3-1.6,1.6-2.6c0.4-1,0.6-2.1,0.6-3.3c0-1.2-0.2-2.3-0.6-3.3c-0.4-1-0.9-1.9-1.6-2.6
		c-0.7-0.7-1.5-1.3-2.5-1.7c-1-0.4-2-0.6-3.2-0.6h-6.1c-1.1,0-2.2,0.2-3.1,0.6c-1,0.4-1.8,1-2.5,1.7c-0.7,0.7-1.2,1.6-1.6,2.6
		c-0.4,1-0.6,2.1-0.6,3.3c0,1.2,0.2,2.3,0.6,3.3c0.4,1,0.9,1.9,1.6,2.6c0.7,0.7,1.5,1.3,2.5,1.7c1,0.4,2,0.6,3.1,0.6H163.3z"/>
	<path id="XMLID_9_" class="st0" d="M202.6,143.3l-6.4-7h-9.4v-3.9h10.5c1.6,0,2.8-0.4,3.6-1.3c0.8-0.9,1.2-2.1,1.2-3.8
		s-0.4-2.9-1.3-3.7c-0.8-0.8-2-1.2-3.5-1.2h-13.7v20.8h-4.4v-25.2h18.1c1.4,0,2.7,0.2,3.8,0.6c1.1,0.4,2.1,1,2.9,1.8
		c0.8,0.8,1.4,1.8,1.8,2.9s0.6,2.4,0.6,3.8c0,2.1-0.5,3.9-1.4,5.3c-0.9,1.4-2.2,2.4-3.8,3.1l7.6,7.7H202.6z"/>
	<path id="XMLID_11_" class="st0" d="M211.1,143.3v-25.2h4.4v20.8h17v4.4H211.1z"/>
	<path id="XMLID_13_" class="st0" d="M235.6,143.3v-25.2h14.6c1.8,0,3.4,0.3,4.9,0.9s2.8,1.4,3.9,2.5c1.1,1.1,1.9,2.4,2.5,3.9
		c0.6,1.5,0.9,3.2,0.9,5c0,1.8-0.3,3.5-0.9,5.1s-1.5,2.9-2.5,4.1s-2.4,2-3.9,2.7s-3.1,1-4.9,1H235.6z M250.2,138.9
		c1.1,0,2.2-0.2,3.1-0.6c1-0.4,1.8-1,2.5-1.7c0.7-0.7,1.3-1.6,1.6-2.6c0.4-1,0.6-2.1,0.6-3.3c0-1.2-0.2-2.3-0.6-3.3
		c-0.4-1-0.9-1.9-1.6-2.6c-0.7-0.7-1.5-1.3-2.5-1.7c-1-0.4-2-0.6-3.1-0.6H240v16.4H250.2z"/>
	<path id="XMLID_16_" class="st0" d="M275.1,92.8h10.8l22.9,38.8l22.8-38.8h10.1l-29.1,48.3c-0.5,0.9-1.1,1.6-1.8,2.1
		s-1.5,0.8-2.4,0.8c-1,0-1.8-0.3-2.5-0.8s-1.3-1.2-1.8-2.1L275.1,92.8z"/>
	<path id="XMLID_18_" class="st0" d="M345.1,143.3v-25.2h4.4v25.2H345.1z"/>
	<path id="XMLID_20_" class="st0" d="M358.3,124.8v18.4h-4.2v-22.9c0-0.8,0.2-1.5,0.6-1.9s1-0.7,1.6-0.7c0.3,0,0.6,0.1,0.9,0.2
		c0.3,0.1,0.6,0.4,0.9,0.7l17.8,17.7v-18.4h4.2v23.1c0,0.8-0.2,1.5-0.6,1.9c-0.4,0.5-0.9,0.7-1.6,0.7c-0.7,0-1.4-0.3-2-0.9
		L358.3,124.8z"/>
	<path id="XMLID_22_" class="st0" d="M384.7,143.3v-25.2h4.4v25.2H384.7z"/>
</g>
<g id="XMLID_5_">
	<radialGradient id="XMLID_24_" cx="67.959" cy="132.1467" r="53.9063" fx="82.7703" fy="120.1818" gradientUnits="userSpaceOnUse">
		<stop  offset="0" style="stop-color:#FFFFFF"/>
		<stop  offset="1" style="stop-color:#0056E9"/>
	</radialGradient>
	<path id="XMLID_2_" class="st1" d="M43.5,58.3h18.8l34.6,68.8l35.9-67.8C120.3,40.4,98.9,28,74.6,28c-23.9,0-45,12-57.6,30.3h0.1
		l36.2,68.8c4.3-8,8.7-16,13-24c0,0,0,0,0-0.1C58.7,88.2,51.1,73.2,43.5,58.3z"/>
	<radialGradient id="XMLID_25_" cx="74.6102" cy="122.1383" r="59.1205" gradientUnits="userSpaceOnUse">
		<stop  offset="0" style="stop-color:#DCDCDC"/>
		<stop  offset="1" style="stop-color:#006DFF"/>
	</radialGradient>
	<path id="XMLID_1_" class="st2" d="M104.6,144.1c-0.9,1.6-2.1,2.9-3.5,3.7c-1.4,0.8-3,1.2-4.6,1.2c-1.6,0-3.2-0.4-4.6-1.2
		c-1.4-0.8-2.5-2.1-3.4-3.7c-7.4-13.7-14.8-27.4-22.2-41.1c0,0,0,0.1,0,0.1c0,0,0,0,0,0c0,0,0,0,0,0c-1.8,13.7-3.7,27.3-5.5,41
		c-0.9,1.6-2.1,2.9-3.4,3.7c-1.4,0.8-2.9,1.2-4.6,1.2c-3.6,0-6.3-1.6-8.1-4.9L8.1,76.3C5.9,83.2,4.7,90.4,4.7,98
		c0,38.6,31.3,69.9,69.9,69.9s69.9-31.3,69.9-69.9c0-7.6-1.2-14.8-3.4-21.6L104.6,144.1z"/>
</g>
</svg>
